External Loads File
version=1
nRows=71
nColumns=13
Range=5.000000e-03-10 seconds
endheader
time 	forceRightX 	forceRightY 	forceRightZ 	pointRightX 	pointRightY 	pointRightZ 	forceLeftX 	forceLeftY 	forceLeftZ 	pointLeftX 	pointLeftY 	pointLeftZ 		
0.005000 7.597692 131.405967 -0.000000 0.455675 0.420344 -0.195305 5.729472 159.898157 -0.000000 0.178124 0.240765 -0.440022
0.010000 9.252202 131.025840 -0.000000 0.455543 0.420463 -0.195320 5.834141 158.580611 -0.000000 0.178341 0.240594 -0.439989
0.015000 10.773930 130.388173 -0.000000 0.455439 0.420642 -0.195330 5.603821 156.853719 -0.000000 0.178614 0.240406 -0.440016
0.020000 11.815264 129.388760 -0.000000 0.455361 0.421651 -0.195346 4.619873 154.567757 -0.000000 0.178922 0.240195 -0.440061
0.025000 12.893461 127.899169 -0.000000 0.455136 0.421804 -0.195184 3.574164 151.672852 -0.000000 0.179154 0.240036 -0.439890
0.030000 13.727985 125.935369 -0.000000 0.455102 0.421941 -0.195175 2.257657 148.281692 -0.000000 0.179435 0.239842 -0.439872
0.035000 14.315835 123.568565 -0.000000 0.455096 0.422085 -0.195189 0.819475 144.582644 -0.000000 0.179703 0.239675 -0.439886
0.040000 14.681810 120.921730 -0.000000 0.455154 0.422217 -0.195208 -0.579118 140.789031 -0.000000 0.179949 0.239548 -0.439918
0.045000 14.890443 118.139265 -0.000000 0.455228 0.422313 -0.195209 -1.781234 137.099837 -0.000000 0.179824 0.239461 -0.439234
0.050000 14.736579 115.405286 -0.000000 0.455310 0.422437 -0.195215 -3.004784 133.671731 -0.000000 0.180014 0.239268 -0.439238
0.055000 14.439811 112.838647 -0.000000 0.455424 0.422490 -0.195222 -4.038222 130.610883 -0.000000 0.180134 0.239237 -0.439252
0.060000 13.935710 110.563269 -0.000000 0.455420 0.422555 -0.195394 -5.047598 127.954252 -0.000000 0.180241 0.239158 -0.439261
0.065000 13.377978 108.631121 -0.000000 0.455529 0.422600 -0.195389 -5.954570 125.701405 -0.000000 0.180323 0.239111 -0.439294
0.070000 12.801000 107.070468 -0.000000 0.455625 0.422640 -0.195408 -6.782884 123.843941 -0.000000 0.180355 0.239072 -0.439277
0.075000 12.316744 105.879474 -0.000000 0.455689 0.422455 -0.195413 -7.409605 122.411226 -0.000000 0.180361 0.239070 -0.439290
0.080000 11.822106 105.068686 -0.000000 0.455742 0.422488 -0.195416 -7.895455 121.462505 -0.000000 0.180350 0.239042 -0.439312
0.085000 11.420114 104.617327 -0.000000 0.455784 0.422508 -0.195428 -8.009958 121.098293 -0.000000 0.180273 0.239078 -0.439303
0.090000 11.063247 104.531304 -0.000000 0.455797 0.422502 -0.195423 -7.680227 121.410646 -0.000000 0.180179 0.239085 -0.439295
0.095000 10.748424 104.824838 -0.000000 0.455797 0.422499 -0.195417 -6.806056 122.476074 -0.000000 0.180003 0.239114 -0.439265
0.100000 10.394670 105.519825 -0.000000 0.455794 0.422498 -0.195416 -5.439712 124.327043 -0.000000 0.180195 0.239274 -0.440013
0.105000 10.068663 106.614257 -0.000000 0.455780 0.422469 -0.195426 -3.531810 126.957214 -0.000000 0.179926 0.239342 -0.440022
0.110000 9.691069 108.110988 -0.000000 0.455755 0.422436 -0.195428 -1.254533 130.309431 -0.000000 0.179665 0.239432 -0.439984
0.115000 9.248475 109.995342 -0.000000 0.455704 0.422421 -0.195422 1.270908 134.296920 -0.000000 0.179377 0.239533 -0.439972
0.120000 8.744129 112.238833 -0.000000 0.455634 0.422392 -0.195423 3.917747 138.796214 -0.000000 0.179112 0.239615 -0.439971
0.125000 8.181784 114.795273 -0.000000 0.455535 0.422412 -0.195423 6.513452 143.623174 -0.000000 0.178888 0.239638 -0.439931
0.130000 7.626726 117.576238 -0.000000 0.455403 0.422445 -0.195433 8.905324 148.508085 -0.000000 0.178770 0.239607 -0.439922
0.135000 7.152610 120.435581 -0.000000 0.455238 0.422527 -0.195455 10.915508 153.111446 -0.000000 0.178740 0.239528 -0.439899
0.140000 6.837167 123.186302 -0.000000 0.455070 0.422629 -0.195476 12.386012 157.080181 -0.000000 0.178797 0.239383 -0.439883
0.145000 6.731919 125.645799 -0.000000 0.454886 0.422761 -0.195474 13.192930 160.114313 -0.000000 0.178922 0.239183 -0.439869
0.150000 6.848251 127.665464 -0.000000 0.454678 0.422953 -0.195420 13.268101 162.015985 -0.000000 0.179158 0.238938 -0.439901
0.155000 7.211981 129.132941 -0.000000 0.454478 0.423182 -0.195455 12.696675 162.704829 -0.000000 0.179476 0.238670 -0.439968
0.160000 7.800843 129.967449 -0.000000 0.454291 0.423447 -0.195485 11.634281 162.218121 -0.000000 0.179782 0.238368 -0.439870
0.165000 8.527383 130.115860 -0.000000 0.454107 0.423740 -0.195490 10.236044 160.685235 -0.000000 0.180166 0.238054 -0.439882
0.170000 9.371476 129.556960 -0.000000 0.453993 0.423964 -0.195482 8.737346 158.273992 -0.000000 0.180506 0.237727 -0.439892
0.175000 10.212361 128.327375 -0.000000 0.453907 0.424192 -0.195487 7.188810 155.169955 -0.000000 0.180868 0.237448 -0.439863
0.180000 10.986585 126.510294 -0.000000 0.453862 0.424394 -0.195482 5.653399 151.559146 -0.000000 0.181233 0.237216 -0.439832
0.185000 11.727077 124.225534 -0.000000 0.453855 0.424573 -0.195564 4.269040 147.639229 -0.000000 0.181089 0.236973 -0.439098
0.190000 12.175499 121.658434 -0.000000 0.453878 0.424739 -0.195567 2.803751 143.635939 -0.000000 0.181411 0.236713 -0.439174
0.195000 12.454035 118.971212 -0.000000 0.453969 0.424929 -0.195525 1.475984 139.766213 -0.000000 0.181645 0.236535 -0.439163
0.200000 12.507722 116.327260 -0.000000 0.454051 0.425084 -0.195549 0.274130 136.221331 -0.000000 0.181854 0.236315 -0.439173
0.205000 12.419940 113.847345 -0.000000 0.454127 0.425210 -0.195563 -0.725414 133.108496 -0.000000 0.182016 0.236220 -0.439190
0.210000 12.218189 111.616146 -0.000000 0.454220 0.425301 -0.195598 -1.588182 130.442904 -0.000000 0.182121 0.236119 -0.439175
0.215000 11.935638 109.672067 -0.000000 0.454300 0.425394 -0.195605 -2.398479 128.184132 -0.000000 0.182208 0.236027 -0.439209
0.220000 11.622990 108.026981 -0.000000 0.454359 0.425493 -0.195621 -3.211856 126.280843 -0.000000 0.182258 0.235960 -0.439215
0.225000 11.327922 106.697022 -0.000000 0.454402 0.425551 -0.195620 -4.050670 124.703439 -0.000000 0.182275 0.235894 -0.439221
0.230000 11.095809 105.719361 -0.000000 0.454436 0.425606 -0.195619 -4.871843 123.465702 -0.000000 0.182255 0.235873 -0.439240
0.235000 10.949960 105.148586 -0.000000 0.454446 0.425706 -0.195627 -5.575479 122.633765 -0.000000 0.182163 0.235890 -0.439232
0.240000 10.928025 105.024696 -0.000000 0.454440 0.425697 -0.195613 -5.978664 122.316548 -0.000000 0.182043 0.235915 -0.439205
0.245000 10.986190 105.353926 -0.000000 0.454430 0.425723 -0.195605 -5.964803 122.632072 -0.000000 0.181860 0.235959 -0.439204
0.250000 11.046428 106.098526 -0.000000 0.454416 0.425701 -0.195607 -5.459967 123.677407 -0.000000 0.182048 0.236136 -0.439937
0.255000 11.115954 107.189927 -0.000000 0.454392 0.425660 -0.195621 -4.324067 125.504014 -0.000000 0.181776 0.236223 -0.439885
0.260000 11.069286 108.585289 -0.000000 0.454366 0.425592 -0.195620 -2.649714 128.091103 -0.000000 0.181474 0.236352 -0.439895
0.265000 10.851910 110.258820 -0.000000 0.454325 0.425538 -0.195615 -0.564813 131.362621 -0.000000 0.181125 0.236540 -0.439941
0.270000 10.435798 112.199825 -0.000000 0.454274 0.425480 -0.195605 1.729390 135.207309 -0.000000 0.180806 0.236681 -0.439903
0.275000 9.880135 114.396039 -0.000000 0.454191 0.425424 -0.195591 4.081697 139.495038 -0.000000 0.180519 0.236779 -0.439900
0.280000 9.280132 116.821808 -0.000000 0.454093 0.425392 -0.195570 6.355478 144.050726 -0.000000 0.180295 0.236849 -0.439858
0.285000 8.726312 119.414610 -0.000000 0.453978 0.425380 -0.195548 8.381897 148.609250 -0.000000 0.180135 0.236849 -0.439869
0.290000 8.309594 122.052496 -0.000000 0.453844 0.425413 -0.195533 9.988677 152.816486 -0.000000 0.180038 0.236847 -0.439864
0.295000 8.050254 124.564755 -0.000000 0.453690 0.425470 -0.195501 10.963375 156.309321 -0.000000 0.180054 0.236774 -0.439871
0.300000 7.991804 126.758738 -0.000000 0.453553 0.425541 -0.195495 11.222389 158.793492 -0.000000 0.180148 0.236648 -0.439846
0.305000 8.122401 128.459727 -0.000000 0.453401 0.425695 -0.195498 10.746321 160.100050 -0.000000 0.180290 0.236503 -0.439850
0.310000 8.471682 129.527501 -0.000000 0.453272 0.425787 -0.195524 9.711160 160.199343 -0.000000 0.180495 0.236328 -0.439884
0.315000 8.976566 129.880979 -0.000000 0.453166 0.425920 -0.195519 8.289275 159.199457 -0.000000 0.180715 0.236116 -0.439872
0.320000 9.623890 129.495391 -0.000000 0.453097 0.426021 -0.195531 6.753065 157.282893 -0.000000 0.180999 0.235945 -0.439905
0.325000 10.352121 128.404518 -0.000000 0.453066 0.426129 -0.195531 5.271242 154.651262 -0.000000 0.181264 0.235830 -0.439881
0.330000 11.069452 126.696425 -0.000000 0.453064 0.426228 -0.195547 3.893665 151.492811 -0.000000 0.181506 0.235720 -0.439865
0.335000 11.711523 124.509170 -0.000000 0.453106 0.426296 -0.195547 2.632073 147.988513 -0.000000 0.181742 0.235617 -0.439884
0.340000 12.228623 122.020475 -0.000000 0.453172 0.426345 -0.195574 1.480576 144.326752 -0.000000 0.181946 0.235556 -0.439873
0.345000 12.576267 119.420278 -0.000000 0.453268 0.426349 -0.195543 0.443286 140.702425 -0.000000 0.182119 0.235514 -0.439886
0.350000 12.701108 116.883295 -0.000000 0.453387 0.426361 -0.195550 -0.475570 137.299758 -0.000000 0.182285 0.235470 -0.439918
0.355000 12.651006 114.537746 -0.000000 0.453517 0.426335 -0.195539 -1.167717 134.262475 -0.000000 0.182384 0.235500 -0.439915
